<svg width="157" height="95" viewBox="0 0 157 95" fill="none" xmlns="http://www.w3.org/2000/svg">
<path d="M50.4376 67.7637C42.9151 67.7637 36.8189 73.8576 36.8189 81.3808C36.8189 88.9044 42.9151 94.9984 50.4376 94.9984C57.9627 94.9984 64.0575 88.9044 64.0575 81.3808C64.0575 73.8576 57.9627 67.7637 50.4376 67.7637ZM50.4376 87.301C47.1675 87.301 44.5178 84.6509 44.5178 81.3808C44.5178 78.1092 47.1675 75.4606 50.4376 75.4606C53.7081 75.4606 56.3597 78.1092 56.3597 81.3808C56.3597 84.6509 53.7081 87.301 50.4376 87.301Z" fill="#85CD29"/>
<path d="M122.251 67.7637C114.729 67.7637 108.633 73.8576 108.633 81.3808C108.633 88.9044 114.729 94.9984 122.251 94.9984C129.777 94.9984 135.871 88.9044 135.871 81.3808C135.871 73.8576 129.777 67.7637 122.251 67.7637ZM122.251 87.301C118.981 87.301 116.332 84.6509 116.332 81.3808C116.332 78.1092 118.981 75.4606 122.251 75.4606C125.522 75.4606 128.174 78.1092 128.174 81.3808C128.174 84.6509 125.522 87.301 122.251 87.301Z" fill="#85CD29"/>
<path d="M63.6667 25.7692C63.6667 27.1796 62.0999 28.3334 60.1855 28.3334H12.1474C10.2327 28.3334 8.66666 27.1796 8.66666 25.7692V24.2307C8.66666 22.8206 10.2331 21.6667 12.1474 21.6667H60.1855C62.1002 21.6667 63.6667 22.8206 63.6667 24.2307V25.7692Z" fill="#85CD29"/>
<path d="M148.937 46.2326C143.944 44.9344 141.086 44.1182 139.125 40.3315L132.569 27.0565C130.607 23.2697 125.513 20.1711 121.249 20.1711H112.282C112.282 20.1711 111.075 20.1963 111.075 18.9823C111.075 16.1988 111.075 7.84871 111.075 7.84871C111.075 3.53269 108.633 0.0012207 103.437 0.0012207H30.3512C22.9129 0.0012207 19.3815 3.53307 19.3815 7.84871V14.8259C19.3815 14.8259 19.3815 16.901 21.3899 16.901C31.6147 16.901 62.2894 16.901 62.2894 16.901C66.1154 16.901 69.2282 20.0134 69.2282 23.8394V25.921C69.2282 29.747 66.1154 32.8593 62.2894 32.8593H21.3899C21.3899 32.8593 19.3815 32.6924 19.3815 34.8605C19.3815 35.9374 19.3815 36.6602 19.3815 37.2599C19.3815 39.1682 21.9969 39.167 21.9969 39.167H49.5285C53.3545 39.167 56.4672 42.2797 56.4672 46.1054V48.187C56.4672 52.013 53.3545 55.1253 49.5285 55.1253H22.4313C22.4313 55.1253 19.3815 55.0689 19.3815 57.4973C19.3815 61.7123 19.3815 74.3567 19.3815 74.3567C19.3815 78.6724 22.9129 82.2042 27.2289 82.2042C27.2289 82.2042 30.48 82.2042 31.5636 82.2042C32.5467 82.2042 32.6915 81.6567 32.6915 81.3815C32.6915 71.5969 40.6529 63.6373 50.438 63.6373C60.2238 63.6373 68.1849 71.5976 68.1849 81.3815C68.1849 81.6578 68.1064 82.2042 68.8582 82.2042C77.4506 82.2042 103.84 82.2042 103.84 82.2042C104.533 82.2042 104.505 81.6197 104.505 81.3815C104.505 71.5969 112.466 63.6373 122.252 63.6373C132.037 63.6373 139.998 71.5976 139.998 81.3815C139.998 81.6578 139.991 82.2042 140.425 82.2042C144.365 82.2042 149.245 82.2042 149.245 82.2042C153.51 82.2042 157 78.715 157 74.4497V59.7172C157 47.3102 153.083 47.3102 148.937 46.2326ZM134.181 45.5426C134.181 45.5426 117.713 45.5426 112.108 45.5426C111.196 45.5426 111.075 44.6548 111.075 44.6548V26.2677C111.075 26.2677 111.024 25.5617 112.194 25.5617C113.769 25.5617 118.493 25.5617 118.493 25.5617C122.287 25.5617 126.82 28.3189 128.565 31.6884L134.399 43.5006C134.645 43.9761 134.908 44.3983 135.189 44.7767C135.396 45.0541 135.049 45.5426 134.181 45.5426Z" fill="#85CD29"/>
<path d="M52 47.4357C52 48.8461 50.4184 49.9999 48.4855 49.9999H3.84781C1.91453 49.9999 0.333313 48.8461 0.333313 47.4357V45.8972C0.333313 44.4871 1.91491 43.3333 3.84781 43.3333H48.4855C50.4188 43.3333 52 44.4871 52 45.8972V47.4357Z" fill="#85CD29"/>
</svg>
