<svg width="52" height="52" viewBox="0 0 52 52" fill="none" xmlns="http://www.w3.org/2000/svg">
<path d="M7.26057 18.3828H4.33557C3.4942 18.3828 2.81213 19.0649 2.81213 19.9062C2.81213 20.7476 3.4942 21.4297 4.33557 21.4297H7.26057C8.10194 21.4297 8.78401 20.7476 8.78401 19.9062C8.78401 19.0649 8.10194 18.3828 7.26057 18.3828Z" fill="#85CD29"/>
<path d="M7.26057 30.5703H4.33557C3.4942 30.5703 2.81213 31.2524 2.81213 32.0938C2.81213 32.9351 3.4942 33.6172 4.33557 33.6172H7.26057C8.10194 33.6172 8.78401 32.9351 8.78401 32.0938C8.78401 31.2524 8.10194 30.5703 7.26057 30.5703Z" fill="#85CD29"/>
<path d="M7.2607 24.4766H1.52344C0.682066 24.4766 0 25.1586 0 26C0 26.8414 0.682066 27.5234 1.52344 27.5234H7.2607C8.10207 27.5234 8.78414 26.8414 8.78414 26C8.78414 25.1586 8.10207 24.4766 7.2607 24.4766Z" fill="#85CD29"/>
<path d="M31.9154 5.91553C20.8408 5.91553 11.8309 14.9254 11.8309 26C11.8309 37.0746 20.8407 46.0845 31.9154 46.0845C42.9901 46.0845 52 37.0746 52 26C52 14.9254 42.9901 5.91553 31.9154 5.91553ZM31.9154 43.0377C22.5209 43.0377 14.8778 35.3946 14.8778 26C14.8778 16.6055 22.5209 8.9624 31.9154 8.9624C41.3101 8.9624 48.9531 16.6055 48.9531 26C48.9531 35.3946 41.3101 43.0377 31.9154 43.0377Z" fill="#85CD29"/>
<path d="M33.8761 27.4228C33.2649 27.0063 32.8992 26.3146 32.8992 25.575V18.4395C32.8992 17.5981 32.2171 16.916 31.3757 16.916C30.5344 16.916 29.8523 17.5981 29.8523 18.4395V26.9443C29.8523 27.8349 30.2927 28.6679 31.0286 29.1694L36.445 32.8605C37.1403 33.3343 38.088 33.1548 38.5618 32.4595C39.0357 31.7642 38.8561 30.8165 38.1608 30.3426L33.8761 27.4228Z" fill="#85CD29"/>
</svg>
