<svg width="51" height="49" viewBox="0 0 51 49" fill="none" xmlns="http://www.w3.org/2000/svg">
<path d="M40.8767 30.8906C40.4319 30.8906 40.071 30.5302 40.071 30.085L34.5 32.5C34.5 31.5584 21.8688 32 20.5 32L22 29.5C21.5553 29.5 33.2601 27.5533 33.2601 27.1081C33.2601 26.6629 33.6205 26.3025 34.0652 26.3025H37.3587C39.4037 26.3025 41.6818 27.7303 41.6818 29.7785V30.085C41.6818 30.5302 41.3214 30.8906 40.8767 30.8906Z" fill="#85CD29"/>
<path fill-rule="evenodd" clip-rule="evenodd" d="M40.8767 31.1906C40.2663 31.1906 39.771 30.6959 39.771 30.0849V29.7784C39.771 29.4501 39.5281 29.063 39.0582 28.7399C38.5989 28.4241 37.9796 28.2132 37.3587 28.2132H34.0652C33.4549 28.2132 32.9601 27.7191 32.9601 27.1081C32.9601 26.4973 33.4547 26.0024 34.0652 26.0024H37.3587C38.4457 26.0024 39.5892 26.3802 40.466 27.0316C41.3441 27.6838 41.9818 28.6338 41.9818 29.7784V30.0849C41.9818 30.6957 41.4872 31.1906 40.8767 31.1906ZM40.071 30.0849C40.071 30.5301 40.4319 30.8906 40.8767 30.8906C41.3214 30.8906 41.6818 30.5301 41.6818 30.0849V29.7784C41.6818 27.7303 39.4037 26.3024 37.3587 26.3024H34.0652C33.6205 26.3024 33.2601 26.6629 33.2601 27.1081C33.2601 27.5533 33.6205 27.9132 34.0652 27.9132H37.3587C38.7276 27.9132 40.071 28.8369 40.071 29.7784V30.0849Z" fill="#85CD29"/>
<path d="M23.2344 21.2142L23.2344 21.2141L36.7027 20.1836C36.6591 20.7098 37.0507 21.1704 37.5767 21.2141C37.6048 21.2165 37.6316 21.217 37.6555 21.217C38.1482 21.217 38.566 20.8393 38.607 20.34L38.607 20.3399L39.0126 15.3577L39.0131 15.3578V15.3455C39.0131 11.5417 36.0852 8.43252 32.4678 8.43252H28.3434C24.7256 8.43252 21.7985 11.5427 21.8014 15.4116L21.8009 15.4116L21.8019 15.4237L22.2042 20.3399L22.2042 20.3401C22.248 20.8665 22.7112 21.2574 23.2344 21.2142ZM37.105 15.2736L36.7027 20.1835L24.1085 20.1836L24.1085 20.1835L23.7094 15.3394C23.7125 12.5735 25.8003 10.3433 28.3434 10.3433H32.4683C35.012 10.3433 37.0987 12.5747 37.105 15.2736Z" fill="#85CD29" stroke="#85CD29" stroke-width="0.3"/>
<path d="M26.9734 27.2065L26.9734 27.2065C26.805 27.7068 27.0745 28.2491 27.5748 28.417C28.4569 28.7132 29.4354 28.8691 30.4058 28.8691C32.7621 28.8691 34.9184 27.9973 36.162 26.5147L36.162 26.5147C37.6475 24.7434 38.6098 22.2808 38.6098 20.2277V16.9817C38.6098 16.0035 38.303 15.2435 37.673 14.7539C37.0136 14.2407 36.1508 14.1331 35.1791 14.2191C34.2121 14.3046 33.107 14.5852 31.9378 14.882L31.9207 14.8863L31.9207 14.8863C30.4556 15.2584 28.9668 15.6362 27.7346 15.6362C26.2247 15.6362 25.3033 15.0563 24.6792 14.6624L24.6789 14.6622C24.6734 14.6588 24.6679 14.6554 24.6624 14.6519C24.4333 14.5081 24.1694 14.3425 23.8894 14.2548C23.5953 14.1628 23.2745 14.1537 22.9463 14.3374C22.5774 14.5412 22.3923 14.8729 22.2993 15.3123C22.208 15.7438 22.201 16.301 22.201 16.9817V20.2277C22.201 21.725 22.7161 23.4692 23.6077 25.0178C23.8712 25.476 24.4553 25.6329 24.9129 25.3689C25.3699 25.1058 25.5272 24.5219 25.2638 24.0644L25.2638 24.0644C24.5399 22.8077 24.1122 21.3709 24.1122 20.2277V16.9817C24.1122 16.8227 24.1132 16.682 24.1151 16.5575C24.8742 16.9991 26.0567 17.547 27.7346 17.547C29.2078 17.547 30.8275 17.1357 32.3725 16.7434L32.3914 16.7386C32.3914 16.7386 32.3914 16.7386 32.3914 16.7386C33.2442 16.5221 34.1441 16.2938 34.9062 16.1778C35.2872 16.1197 35.6273 16.0909 35.9059 16.104C36.189 16.1174 36.385 16.1733 36.4997 16.2626L36.5001 16.263C36.6106 16.3483 36.699 16.5642 36.699 16.9817V20.2277C36.699 21.8184 35.8972 23.8574 34.6984 25.2868C33.8421 26.307 32.2015 26.9583 30.4054 26.9583C29.6382 26.9583 28.8695 26.8353 28.1828 26.6048L28.1823 26.6046C27.6831 26.4391 27.1419 26.7066 26.9734 27.2065Z" fill="#85CD29" stroke="#85CD29" stroke-width="0.3"/>
<path d="M37.3537 38.0328L37.3537 38.0328C37.371 38.1101 37.3744 38.1872 37.3736 38.2651C37.3734 38.2867 37.3727 38.3107 37.372 38.3356C37.3705 38.3902 37.3688 38.449 37.3717 38.497C37.3759 38.5696 37.3912 38.6677 37.4645 38.7437C37.5402 38.8221 37.6462 38.8456 37.756 38.8456C37.8256 38.8456 37.8958 38.8379 37.9651 38.8228L37.9658 38.8226L47.4843 36.6908C48.2639 36.5529 48.9445 36.1205 49.3991 35.4722C49.8547 34.8234 50.0306 34.0356 49.8933 33.2543C49.7117 32.2179 48.9855 31.347 47.9983 30.9814C47.5047 30.7952 46.9538 31.051 46.7704 31.5448L46.7704 31.5449C46.5868 32.0401 46.8393 32.5895 47.3345 32.7728C47.6866 32.9036 47.9464 33.2149 48.0109 33.5844L48.0109 33.5845C48.0598 33.8633 47.9974 34.1433 47.8349 34.3748C47.6739 34.6044 47.4323 34.7603 47.114 34.8165L47.1139 34.816L47.102 34.8192L37.4646 37.3542C37.4112 37.3661 37.3661 37.3769 37.3298 37.3873C37.296 37.3971 37.2566 37.4101 37.2236 37.4308C37.1868 37.4538 37.1316 37.5047 37.1336 37.5899C37.1351 37.65 37.1675 37.6952 37.1784 37.7103L37.1789 37.711C37.19 37.7264 37.202 37.7414 37.2146 37.757C37.2643 37.8189 37.3217 37.8902 37.3537 38.0328Z" fill="#85CD29" stroke="#85CD29" stroke-width="0.3"/>
<path d="M27.6874 25.6475C27.2847 26.8756 26.1277 27.7639 24.7678 27.7639H21.5458C21.21 27.7639 20.899 27.9405 20.7267 28.2276L18.3104 32.2547L27.6874 25.6475ZM27.6874 25.6475H19.4421L8.49419 33.6766L8.49408 33.6767C8.0674 33.989 7.47115 33.8945 7.15885 33.4714L7.15854 33.471C6.84688 33.0456 6.93881 32.4477 7.36398 32.1351L7.36413 32.135L18.5644 23.9217C18.5644 23.9217 18.5644 23.9217 18.5644 23.9217C18.7281 23.8012 18.9262 23.7367 19.1293 23.7367H28.7946C29.3221 23.7367 29.7502 24.1642 29.7502 24.6923C29.7502 27.44 27.515 29.6752 24.7673 29.6752H22.087L20.817 31.7916H34.2438L46.0274 26.9339C46.0276 26.9337 46.0279 26.9336 46.0281 26.9335C47.5283 26.2963 49.2735 27.0045 49.9126 28.5107C50.2221 29.2405 50.2294 30.0477 49.932 30.7833C49.6461 31.4913 49.1108 32.0513 48.4207 32.3685L36.6018 39.9679C33.8414 42.16 30.3842 43.3672 26.8588 43.3672H20.7401C20.6715 43.3672 20.602 43.3602 20.5329 43.3447L27.6874 25.6475ZM35.5405 38.5608L35.4468 38.4437C33.0183 40.3863 29.968 41.4564 26.8588 41.4564H20.8451L13.6981 39.868L13.697 39.8678C13.1831 39.7577 12.6731 40.0781 12.5586 40.594C12.4439 41.1088 12.7693 41.6192 13.284 41.7339L13.2841 41.7339L20.5327 43.3447L47.5295 30.847M35.5405 38.5608L35.4462 38.4442C35.4734 38.4223 35.5007 38.4034 35.5268 38.3867L35.5267 38.3867L35.6078 38.5129L35.527 38.3866L47.4474 30.7215L47.5295 30.847M35.5405 38.5608C33.0854 40.5247 30.0021 41.6064 26.8588 41.6064H20.8286L35.5405 38.5608ZM47.5295 30.847L47.4484 30.7208L47.4478 30.7213C47.4945 30.6907 47.5428 30.6656 47.5916 30.6446L47.5923 30.6443C47.8526 30.5341 48.0538 30.3291 48.1602 30.0672M47.5295 30.847C47.5682 30.8217 47.6088 30.8005 47.6507 30.7825C47.948 30.6567 48.178 30.4221 48.2992 30.1234M48.1602 30.0672L48.2992 30.1234M48.1602 30.0672C48.1602 30.0671 48.1602 30.0671 48.1602 30.067L48.2992 30.1234M48.1602 30.0672C48.2664 29.8046 48.2636 29.5168 48.1533 29.257L48.1533 29.257C47.9252 28.7193 47.3026 28.4679 46.766 28.6959L46.7645 28.6965L34.7971 33.6302C34.6814 33.678 34.5573 33.7019 34.433 33.7019H19.1293C18.7851 33.7019 18.4673 33.5172 18.2978 33.2175L18.2977 33.2174C18.1284 32.9174 18.1332 32.5496 18.3103 32.2548L48.2914 29.1984M48.2992 30.1234C48.4204 29.8238 48.4172 29.4948 48.2914 29.1984M48.2914 29.1984C48.031 28.5845 47.3203 28.2974 46.7073 28.5578L48.2914 29.1984Z" fill="#85CD29" stroke="#85CD29" stroke-width="0.3"/>
<path d="M9.5616 47.9131L9.56196 47.9132C9.61321 47.9215 9.66455 47.9253 9.71489 47.9253C9.9138 47.9253 10.1099 47.863 10.2735 47.7454L10.2736 47.7453L15.5001 43.9766L15.5001 43.9766C15.9281 43.6678 16.0249 43.0708 15.7161 42.6427C15.7161 42.6427 15.716 42.6427 15.716 42.6426L7.80729 31.6722L7.80727 31.6722C7.49836 31.2439 6.90209 31.151 6.47414 31.4552L6.47414 31.4552L6.47333 31.4558L1.2469 35.2235L1.2467 35.2236C1.04145 35.3721 0.903086 35.5956 0.862566 35.8455C0.821584 36.0955 0.88225 36.3525 1.03105 36.5577C1.03108 36.5577 1.03111 36.5578 1.03114 36.5578L8.93967 47.5288L8.93977 47.529C9.08791 47.734 9.31142 47.8722 9.5616 47.9131ZM9.93135 45.6357L3.13959 36.2152L6.81607 33.5645L13.6078 42.985L9.93135 45.6357Z" fill="#85CD29" stroke="#85CD29" stroke-width="0.3"/>
<path d="M11.8801 42.4118C11.8801 43.3013 11.1588 44.0226 10.2693 44.0226C9.37979 44.0226 8.65851 43.3013 8.65851 42.4118C8.65851 41.5218 9.37979 40.8005 10.2693 40.8005C11.1588 40.8005 11.8801 41.5218 11.8801 42.4118Z" fill="#85CD29"/>
<path d="M29.4502 5.36071C29.4502 5.88888 29.8779 6.31588 30.4059 6.31588C30.9334 6.31588 31.361 5.88882 31.361 5.36071V2.13866C31.361 1.61055 30.9334 1.1835 30.4059 1.1835C29.8779 1.1835 29.4502 1.61049 29.4502 2.13866V5.36071Z" fill="#85CD29" stroke="#85CD29" stroke-width="0.3"/>
<path d="M35.7709 1.86577L35.771 1.86568C36.1443 1.49293 36.749 1.49282 37.1219 1.86576C37.4953 2.23912 37.4953 2.84384 37.1219 3.2172L34.3031 6.03597C34.1163 6.22286 33.872 6.31588 33.6274 6.31588C33.3834 6.31588 33.1386 6.22293 32.9521 6.03586C32.952 6.03585 32.952 6.03583 32.952 6.03582L33.0582 5.92991L35.7709 1.86577ZM35.7709 1.86577L32.9522 4.68499L35.7709 1.86577Z" fill="#85CD29" stroke="#85CD29" stroke-width="0.3"/>
<path d="M25.4431 2.26859L25.443 2.26851L24.0922 3.61965L26.5084 6.03583C26.6949 6.22293 26.9397 6.3159 27.1838 6.3159C27.4279 6.3159 27.6726 6.22291 27.8595 6.03599C28.2325 5.66304 28.2324 5.05839 27.8596 4.68509L27.8595 4.68501L25.4431 2.26859Z" fill="#85CD29" stroke="#85CD29" stroke-width="0.3"/>
</svg>
