<svg width="47" height="44" viewBox="0 0 47 44" fill="none" xmlns="http://www.w3.org/2000/svg">
<path d="M44.938 23.8129C45.6632 23.0034 46.105 21.935 46.105 20.766C46.105 18.2462 44.0544 16.1957 41.5347 16.1957H32.6642C33.5427 13.5297 33.9175 9.99224 33.9175 8.47591V6.95349C33.9175 3.5938 31.1834 0.859741 27.8237 0.859741H26.3003C25.6015 0.859741 24.9922 1.33505 24.8226 2.01349L23.9928 5.33357C22.8299 9.9831 19.1381 15.113 15.3173 16.0454C14.648 14.3513 12.9956 13.1488 11.0659 13.1488H1.92529C1.08436 13.1488 0.401855 13.8313 0.401855 14.6722V42.0941C0.401855 42.9351 1.08436 43.6176 1.92529 43.6176H11.0659C12.8829 43.6176 14.4551 42.5522 15.1914 41.0125L20.4259 42.7573C22.1372 43.3281 23.9207 43.6176 25.7255 43.6176H38.4878C41.0076 43.6176 43.0581 41.567 43.0581 39.0472C43.0581 38.4531 42.9444 37.8844 42.7372 37.3633C44.675 36.8342 46.105 35.0579 46.105 32.9535C46.105 31.7845 45.6632 30.7161 44.938 29.9066C45.6632 29.0972 46.105 28.0287 46.105 26.8597C46.105 25.6908 45.6632 24.6223 44.938 23.8129ZM12.5894 39.0472C12.5894 39.8872 11.9058 40.5707 11.0659 40.5707H3.44873V16.1957H11.0659C11.9058 16.1957 12.5894 16.8792 12.5894 17.7191V39.0472ZM38.4878 25.3363H41.5347C42.3746 25.3363 43.0581 26.0198 43.0581 26.8597C43.0581 27.6997 42.3746 28.3832 41.5347 28.3832H38.4878C37.6469 28.3832 36.9644 29.0657 36.9644 29.9066C36.9644 30.7476 37.6469 31.4301 38.4878 31.4301H41.5347C42.3746 31.4301 43.0581 32.1136 43.0581 32.9535C43.0581 33.7934 42.3746 34.4769 41.5347 34.4769H38.4878C37.6469 34.4769 36.9644 35.1594 36.9644 36.0004C36.9644 36.8413 37.6469 37.5238 38.4878 37.5238C39.3277 37.5238 40.0112 38.2073 40.0112 39.0472C40.0112 39.8872 39.3277 40.5707 38.4878 40.5707H25.7255C24.2487 40.5707 22.7893 40.334 21.3887 39.8669L15.6362 37.9494V19.0983C18.026 18.6444 20.365 17.1311 22.4765 14.654C24.5382 12.2347 26.2099 9.0274 26.9483 6.07294L27.4896 3.90662H27.8237C29.5036 3.90662 30.8706 5.27365 30.8706 6.95349V8.47591C30.8706 10.5214 30.2308 14.4447 29.4122 16.1957H26.3003C25.4594 16.1957 24.7769 16.8782 24.7769 17.7191C24.7769 18.5601 25.4594 19.2426 26.3003 19.2426H41.5347C42.3746 19.2426 43.0581 19.9261 43.0581 20.766C43.0581 21.6059 42.3746 22.2894 41.5347 22.2894H38.4878C37.6469 22.2894 36.9644 22.9719 36.9644 23.8129C36.9644 24.6538 37.6469 25.3363 38.4878 25.3363Z" fill="#85CD29"/>
</svg>
