<svg width="46" height="54" viewBox="0 0 46 54" fill="none" xmlns="http://www.w3.org/2000/svg">
<path d="M45.9381 14.6516L45.9364 14.6095C45.9129 14.0909 45.8973 13.5421 45.8878 12.9315C45.8437 9.9541 43.4769 7.49125 40.499 7.3248C34.2904 6.97832 29.4875 4.95382 25.3837 0.953851L25.3486 0.92048C24.0101 -0.306827 21.991 -0.306827 20.652 0.92048L20.617 0.953851C16.5132 4.95382 11.7103 6.97832 5.50163 7.32522C2.5242 7.49125 0.156932 9.9541 0.11285 12.9319C0.103786 13.5384 0.0877186 14.0871 0.0642354 14.6095L0.0617635 14.7072C-0.0589484 21.0382 -0.208911 28.9174 2.42698 36.0691C3.87634 40.0019 6.07141 43.4206 8.95078 46.2307C12.2302 49.431 16.5256 51.9717 21.7174 53.782C21.8863 53.8409 22.0618 53.8887 22.2406 53.9246C22.4928 53.9748 22.7465 54 23.0003 54C23.2541 54 23.5083 53.9748 23.76 53.9246C23.9388 53.8887 24.1156 53.8405 24.2853 53.7812C29.471 51.9676 33.7618 49.4257 37.0383 46.2258C39.9165 43.4148 42.1115 39.9953 43.5621 36.0617C46.2079 28.8886 46.0584 20.9945 45.9381 14.6516ZM40.5893 34.9654C37.8092 42.5031 32.1341 47.6797 23.2397 50.7902C23.208 50.8009 23.1742 50.8104 23.1392 50.8174C23.0473 50.8355 22.9538 50.8355 22.8607 50.8169C22.8261 50.8099 22.7923 50.8009 22.761 50.7902C13.8571 47.6854 8.1783 42.5117 5.40028 34.9736C2.9708 28.3814 3.1084 21.1486 3.22994 14.7677L3.23076 14.7323C3.25548 14.184 3.27196 13.6097 3.28102 12.9785C3.3008 11.6564 4.35384 10.5626 5.67837 10.4889C9.19179 10.2928 12.2784 9.6138 15.1145 8.41327C17.9469 7.21439 20.4625 5.52443 22.8042 3.24697C22.9233 3.14644 23.0778 3.14603 23.1964 3.24697C25.5386 5.52443 28.0542 7.21439 30.8862 8.41327C33.7223 9.6138 36.8089 10.2928 40.3227 10.4889C41.6472 10.5626 42.7003 11.6564 42.7196 12.9789C42.7291 13.6134 42.7456 14.1877 42.7703 14.7323C42.8914 21.1206 43.0257 28.3592 40.5893 34.9654Z" fill="#85CD29"/>
<path d="M22.9991 13.5435C15.5784 13.5435 9.54156 19.5807 9.54156 27.001C9.54156 34.4217 15.5784 40.459 22.9991 40.459C30.4194 40.459 36.4567 34.4217 36.4567 27.001C36.4567 19.5807 30.4194 13.5435 22.9991 13.5435ZM22.9991 37.29C17.3257 37.29 12.7102 32.6745 12.7102 27.001C12.7102 21.3275 17.3257 16.7121 22.9991 16.7121C28.6722 16.7121 33.2877 21.3275 33.2877 27.001C33.2877 32.6745 28.6722 37.29 22.9991 37.29Z" fill="#85CD29"/>
<path d="M26.8675 22.8226L20.6169 29.0732L18.9203 27.3767C18.3015 26.7579 17.2983 26.7579 16.6795 27.3767C16.0611 27.9955 16.0611 28.9987 16.6795 29.6171L19.4967 32.4342C19.8061 32.7436 20.2115 32.8981 20.6169 32.8981C21.0223 32.8981 21.4276 32.7436 21.737 32.4342L29.1083 25.063C29.7267 24.4441 29.7267 23.441 29.1083 22.8226C28.4895 22.2034 27.4863 22.2034 26.8675 22.8226Z" fill="#85CD29"/>
</svg>
