<svg width="95" height="95" viewBox="0 0 95 95" fill="none" xmlns="http://www.w3.org/2000/svg">
<g clip-path="url(#clip0)">
<path d="M68.3604 19.827L59.9568 5.43057C59.5571 4.74578 58.9 4.24703 58.1321 4.04911C57.3681 3.85911 56.5487 3.96994 55.8679 4.37765L30.1783 19.7914L68.3604 19.827Z" fill="#85CD29"/>
<path d="M11.875 23.7498C9.69792 23.7498 7.91667 21.9686 7.91667 19.7915C7.91667 17.6144 9.69792 15.8332 11.875 15.8332H25.2146L38.4354 7.9165H11.875C6.01667 7.9165 1.14792 12.1915 0.197917 17.8123C0.11875 18.129 0 18.4457 0 18.8019V79.1665C0 85.6978 5.34375 91.0415 11.875 91.0415H79.1667C83.5208 91.0415 87.0833 87.479 87.0833 83.1248V75.2082H77.1875C67.3708 75.2082 59.375 67.2123 59.375 57.3957C59.375 47.579 67.3708 39.5832 77.1875 39.5832H87.0833V31.6665C87.0833 27.3123 83.5208 23.7498 79.1667 23.7498H11.875ZM75.2083 15.8332C75.2083 11.8353 72.2396 8.51025 68.3604 7.99567L75.2083 19.7915V15.8332Z" fill="#85CD29"/>
<path d="M92.0312 45.521H77.1875C70.6404 45.521 65.3125 50.8489 65.3125 57.396C65.3125 63.9431 70.6404 69.271 77.1875 69.271H92.0312C93.67 69.271 95 67.941 95 66.3023V48.4897C95 46.851 93.67 45.521 92.0312 45.521ZM77.1875 61.3543C75.0025 61.3543 73.2292 59.581 73.2292 57.396C73.2292 55.211 75.0025 53.4377 77.1875 53.4377C79.3725 53.4377 81.1458 55.211 81.1458 57.396C81.1458 59.581 79.3725 61.3543 77.1875 61.3543Z" fill="#85CD29"/>
</g>
<defs>
<clipPath id="clip0">
<rect width="95" height="95" fill="white"/>
</clipPath>
</defs>
</svg>
