<svg width="90" height="90" viewBox="0 0 90 90" fill="none" xmlns="http://www.w3.org/2000/svg">
<path d="M89.7295 26.4468C89.5104 21.6568 88.7496 18.3856 87.6373 15.5237C86.5077 12.521 84.7362 9.80118 82.4469 7.5531C80.1995 5.26382 77.479 3.49159 74.4763 2.36137C71.6137 1.24969 68.3432 0.489578 63.5532 0.271912C58.7542 0.0521851 57.2209 0 45 0C32.7791 0 31.2458 0.0521851 26.4468 0.270538C21.6568 0.489578 18.3863 1.25038 15.5237 2.36275C12.521 3.49228 9.80118 5.26382 7.5531 7.5531C5.26382 9.80049 3.49159 12.5203 2.36137 15.523C1.24969 18.3856 0.489578 21.6568 0.271912 26.4462C0.0521851 31.2458 0 32.7784 0 44.9993C0 57.2209 0.0521851 58.7542 0.271912 63.5532C0.490265 68.3425 1.25107 71.6137 2.36343 74.4763C3.49297 77.4783 5.26451 80.1988 7.55379 82.4462C9.80118 84.7355 12.5217 86.507 15.5244 87.6366C18.3863 88.7496 21.6575 89.5097 26.4475 89.7288C31.2472 89.9478 32.7798 89.9993 45.0007 89.9993C57.2216 89.9993 58.7549 89.9478 63.5538 89.7288C68.3439 89.5097 71.6144 88.7496 74.477 87.6366C80.5215 85.2992 85.2999 80.5209 87.6373 74.4763C88.7503 71.6137 89.5104 68.3425 89.7295 63.5532C89.9478 58.7535 90 57.2209 90 45C90 32.7784 89.9478 31.2458 89.7295 26.4468ZM81.6291 63.1844C81.4293 67.5721 80.696 69.9548 80.08 71.5402C78.566 75.4651 75.4644 78.5667 71.5395 80.0807C69.9541 80.6966 67.5714 81.43 63.1837 81.6298C58.4397 81.8468 57.0163 81.8921 45 81.8921C32.983 81.8921 31.5603 81.8468 26.8156 81.6298C22.4286 81.43 20.0459 80.6966 18.4598 80.0807C16.5056 79.3591 14.7375 78.2089 13.2859 76.7141C11.7911 75.2625 10.6409 73.4951 9.91928 71.5402C9.30336 69.9548 8.57002 67.5721 8.37021 63.1844C8.15392 58.4397 8.10791 57.0163 8.10791 45.0007C8.10791 32.9844 8.15392 31.5617 8.37021 26.8163C8.57071 22.4286 9.30336 20.0459 9.91928 18.4605C10.6409 16.5056 11.7918 14.7375 13.2859 13.2859C14.7375 11.7911 16.5056 10.6409 18.4605 9.91997C20.0459 9.30336 22.4286 8.57071 26.8163 8.37021C31.561 8.15392 32.9844 8.10791 45 8.10791H44.9993C57.0149 8.10791 58.4383 8.15392 63.1837 8.3709C67.5714 8.57071 69.9534 9.30405 71.5395 9.91997C73.4937 10.6416 75.2618 11.7918 76.7134 13.2859C78.2082 14.7375 79.3584 16.5056 80.0793 18.4605C80.696 20.0459 81.4293 22.4286 81.6291 26.8163C81.8454 31.561 81.8914 32.9844 81.8914 45C81.8914 57.0163 81.8461 58.439 81.6291 63.1844Z" fill="url(#paint0_linear)"/>
<path d="M44.9993 21.8916C32.2373 21.8916 21.8916 32.238 21.8916 45C21.8916 57.762 32.2373 68.1077 44.9993 68.1077C57.762 68.1077 68.1077 57.762 68.1077 45C68.1077 32.238 57.762 21.8916 44.9993 21.8916ZM44.9993 59.9997C36.7156 59.9991 29.9995 53.2837 30.0002 44.9993C30.0002 36.7156 36.7156 29.9995 45 29.9995C53.2844 30.0002 59.9998 36.7156 59.9998 44.9993C59.9998 53.2837 53.2837 59.9997 44.9993 59.9997Z" fill="url(#paint1_linear)"/>
<path d="M74.4207 20.9791C74.4207 23.9612 72.003 26.3789 69.0209 26.3789C66.0381 26.3789 63.6205 23.9612 63.6205 20.9791C63.6205 17.9963 66.0381 15.5786 69.0209 15.5786C72.003 15.5786 74.4207 17.9963 74.4207 20.9791Z" fill="url(#paint2_linear)"/>
<defs>
<linearGradient id="paint0_linear" x1="7.55264" y1="82.4466" x2="82.4473" y2="7.55192" gradientUnits="userSpaceOnUse">
<stop stop-color="#FFD600"/>
<stop offset="0.5" stop-color="#FF0100"/>
<stop offset="1" stop-color="#D800B9"/>
</linearGradient>
<linearGradient id="paint1_linear" x1="28.6599" y1="61.3395" x2="61.3396" y2="28.6599" gradientUnits="userSpaceOnUse">
<stop stop-color="#FF6400"/>
<stop offset="0.5" stop-color="#FF0100"/>
<stop offset="1" stop-color="#FD0056"/>
</linearGradient>
<linearGradient id="paint2_linear" x1="65.2024" y1="24.7971" x2="72.839" y2="17.1605" gradientUnits="userSpaceOnUse">
<stop stop-color="#F30072"/>
<stop offset="1" stop-color="#E50097"/>
</linearGradient>
</defs>
</svg>
